<svg width="379" height="29" viewBox="0 0 379 29" fill="none" xmlns="http://www.w3.org/2000/svg">
<path d="M53.4091 15V3.36364H57.4773C58.2879 3.36364 58.9564 3.50379 59.483 3.78409C60.0095 4.06061 60.4015 4.43371 60.6591 4.90341C60.9167 5.36932 61.0455 5.88636 61.0455 6.45455C61.0455 6.95455 60.9564 7.36742 60.7784 7.69318C60.6042 8.01894 60.3731 8.27652 60.0852 8.46591C59.8011 8.6553 59.4924 8.79545 59.1591 8.88636V9C59.5152 9.02273 59.8731 9.14773 60.233 9.375C60.5928 9.60227 60.8939 9.92803 61.1364 10.3523C61.3788 10.7765 61.5 11.2955 61.5 11.9091C61.5 12.4924 61.3674 13.017 61.1023 13.483C60.8371 13.9489 60.4186 14.3182 59.8466 14.5909C59.2746 14.8636 58.5303 15 57.6136 15H53.4091ZM54.8182 13.75H57.6136C58.5341 13.75 59.1875 13.572 59.5739 13.2159C59.964 12.8561 60.1591 12.4205 60.1591 11.9091C60.1591 11.5152 60.0587 11.1515 59.858 10.8182C59.6572 10.4811 59.3712 10.2121 59 10.0114C58.6288 9.80682 58.1894 9.70455 57.6818 9.70455H54.8182V13.75ZM54.8182 8.47727H57.4318C57.8561 8.47727 58.2386 8.39394 58.5795 8.22727C58.9242 8.06061 59.197 7.82576 59.3977 7.52273C59.6023 7.2197 59.7045 6.86364 59.7045 6.45455C59.7045 5.94318 59.5265 5.50947 59.1705 5.15341C58.8144 4.79356 58.25 4.61364 57.4773 4.61364H54.8182V8.47727ZM67.499 15.1818C66.7111 15.1818 66.0198 14.9943 65.4251 14.6193C64.8342 14.2443 64.3721 13.7197 64.0387 13.0455C63.7092 12.3712 63.5444 11.5833 63.5444 10.6818C63.5444 9.77273 63.7092 8.97917 64.0387 8.30114C64.3721 7.62311 64.8342 7.09659 65.4251 6.72159C66.0198 6.34659 66.7111 6.15909 67.499 6.15909C68.2869 6.15909 68.9762 6.34659 69.5672 6.72159C70.1619 7.09659 70.624 7.62311 70.9535 8.30114C71.2869 8.97917 71.4535 9.77273 71.4535 10.6818C71.4535 11.5833 71.2869 12.3712 70.9535 13.0455C70.624 13.7197 70.1619 14.2443 69.5672 14.6193C68.9762 14.9943 68.2869 15.1818 67.499 15.1818ZM67.499 13.9773C68.0975 13.9773 68.5899 13.8239 68.9762 13.517C69.3626 13.2102 69.6486 12.8068 69.8342 12.3068C70.0198 11.8068 70.1126 11.2652 70.1126 10.6818C70.1126 10.0985 70.0198 9.55492 69.8342 9.05114C69.6486 8.54735 69.3626 8.14015 68.9762 7.82955C68.5899 7.51894 68.0975 7.36364 67.499 7.36364C66.9005 7.36364 66.4081 7.51894 66.0217 7.82955C65.6353 8.14015 65.3494 8.54735 65.1637 9.05114C64.9781 9.55492 64.8853 10.0985 64.8853 10.6818C64.8853 11.2652 64.9781 11.8068 65.1637 12.3068C65.3494 12.8068 65.6353 13.2102 66.0217 13.517C66.4081 13.8239 66.9005 13.9773 67.499 13.9773ZM75.1613 13.0227L79.3659 6.27273H80.9113V15H79.5704V8.25L75.3886 15H73.8204V6.27273H75.1613V13.0227ZM78.4795 3.36364H79.7295C79.7295 3.97727 79.5174 4.47917 79.0931 4.86932C78.6689 5.25947 78.0931 5.45455 77.3659 5.45455C76.6499 5.45455 76.0799 5.25947 75.6556 4.86932C75.2352 4.47917 75.0249 3.97727 75.0249 3.36364H76.2749C76.2749 3.65909 76.3564 3.91856 76.5193 4.14205C76.6859 4.36553 76.9681 4.47727 77.3659 4.47727C77.7636 4.47727 78.0477 4.36553 78.2181 4.14205C78.3924 3.91856 78.4795 3.65909 78.4795 3.36364ZM82.4998 7.52273V6.27273H89.5907V7.52273H86.727V15H85.3861V7.52273H82.4998ZM93.2076 13.0227L97.4121 6.27273H98.9576V15H97.6166V8.25L93.4348 15H91.8666V6.27273H93.2076V13.0227Z" fill="#029491"/>
<path d="M194.136 15.1591C193.386 15.1591 192.718 15.0303 192.131 14.7727C191.547 14.5152 191.083 14.1572 190.739 13.6989C190.398 13.2367 190.212 12.7008 190.182 12.0909H191.614C191.644 12.4659 191.773 12.7898 192 13.0625C192.227 13.3314 192.525 13.5398 192.892 13.6875C193.259 13.8352 193.667 13.9091 194.114 13.9091C194.614 13.9091 195.057 13.822 195.443 13.6477C195.83 13.4735 196.133 13.2311 196.352 12.9205C196.572 12.6098 196.682 12.25 196.682 11.8409C196.682 11.4129 196.576 11.036 196.364 10.7102C196.152 10.3807 195.841 10.1231 195.432 9.9375C195.023 9.75189 194.523 9.65909 193.932 9.65909H193V8.40909H193.932C194.394 8.40909 194.799 8.32576 195.148 8.15909C195.5 7.99242 195.775 7.75758 195.972 7.45455C196.172 7.15152 196.273 6.79545 196.273 6.38636C196.273 5.99242 196.186 5.64962 196.011 5.35795C195.837 5.06629 195.591 4.83901 195.273 4.67614C194.958 4.51326 194.587 4.43182 194.159 4.43182C193.758 4.43182 193.379 4.50568 193.023 4.65341C192.67 4.79735 192.383 5.00758 192.159 5.28409C191.936 5.55682 191.814 5.88636 191.795 6.27273H190.432C190.455 5.66288 190.638 5.12879 190.983 4.67045C191.328 4.20833 191.778 3.84848 192.335 3.59091C192.896 3.33333 193.511 3.20455 194.182 3.20455C194.902 3.20455 195.519 3.35038 196.034 3.64205C196.549 3.92992 196.945 4.31061 197.222 4.78409C197.498 5.25758 197.636 5.76894 197.636 6.31818C197.636 6.97348 197.464 7.5322 197.119 7.99432C196.778 8.45644 196.314 8.77652 195.727 8.95455V9.04545C196.462 9.16667 197.036 9.47917 197.449 9.98295C197.862 10.483 198.068 11.1023 198.068 11.8409C198.068 12.4735 197.896 13.0417 197.551 13.5455C197.21 14.0455 196.744 14.4394 196.153 14.7273C195.563 15.0152 194.89 15.1591 194.136 15.1591ZM203.303 15.2045C202.75 15.2045 202.248 15.1004 201.797 14.892C201.347 14.6799 200.989 14.375 200.723 13.9773C200.458 13.5758 200.326 13.0909 200.326 12.5227C200.326 12.0227 200.424 11.6174 200.621 11.3068C200.818 10.9924 201.081 10.7462 201.411 10.5682C201.74 10.3902 202.104 10.2576 202.502 10.1705C202.903 10.0795 203.307 10.0076 203.712 9.95455C204.242 9.88636 204.672 9.83523 205.002 9.80114C205.335 9.76326 205.578 9.70076 205.729 9.61364C205.884 9.52652 205.962 9.375 205.962 9.15909V9.11364C205.962 8.55303 205.809 8.11742 205.502 7.80682C205.199 7.49621 204.739 7.34091 204.121 7.34091C203.481 7.34091 202.979 7.48106 202.615 7.76136C202.252 8.04167 201.996 8.34091 201.848 8.65909L200.576 8.20455C200.803 7.67424 201.106 7.26136 201.485 6.96591C201.867 6.66667 202.284 6.45833 202.735 6.34091C203.189 6.2197 203.636 6.15909 204.076 6.15909C204.356 6.15909 204.678 6.19318 205.042 6.26136C205.409 6.32576 205.763 6.46023 206.104 6.66477C206.449 6.86932 206.735 7.17803 206.962 7.59091C207.189 8.00379 207.303 8.55682 207.303 9.25V15H205.962V13.8182H205.894C205.803 14.0076 205.651 14.2102 205.439 14.4261C205.227 14.642 204.945 14.8258 204.593 14.9773C204.24 15.1288 203.811 15.2045 203.303 15.2045ZM203.507 14C204.038 14 204.485 13.8958 204.848 13.6875C205.216 13.4792 205.492 13.2102 205.678 12.8807C205.867 12.5511 205.962 12.2045 205.962 11.8409V10.6136C205.905 10.6818 205.78 10.7443 205.587 10.8011C205.398 10.8542 205.178 10.9015 204.928 10.9432C204.682 10.9811 204.441 11.0152 204.206 11.0455C203.975 11.072 203.788 11.0947 203.644 11.1136C203.295 11.1591 202.97 11.233 202.667 11.3352C202.367 11.4337 202.125 11.5833 201.939 11.7841C201.757 11.9811 201.667 12.25 201.667 12.5909C201.667 13.0568 201.839 13.4091 202.184 13.6477C202.532 13.8826 202.973 14 203.507 14ZM210.07 18.2727V6.27273H211.366V7.65909H211.525C211.623 7.50758 211.76 7.31439 211.934 7.07955C212.112 6.84091 212.366 6.62879 212.695 6.44318C213.029 6.25379 213.479 6.15909 214.048 6.15909C214.783 6.15909 215.43 6.3428 215.991 6.71023C216.551 7.07765 216.989 7.59848 217.303 8.27273C217.618 8.94697 217.775 9.74242 217.775 10.6591C217.775 11.5833 217.618 12.3845 217.303 13.0625C216.989 13.7367 216.553 14.2595 215.997 14.6307C215.44 14.9981 214.798 15.1818 214.07 15.1818C213.51 15.1818 213.061 15.089 212.724 14.9034C212.387 14.714 212.127 14.5 211.945 14.2614C211.764 14.0189 211.623 13.8182 211.525 13.6591H211.411V18.2727H210.07ZM211.389 10.6364C211.389 11.2955 211.485 11.8769 211.678 12.3807C211.872 12.8807 212.154 13.2727 212.525 13.5568C212.896 13.8371 213.351 13.9773 213.889 13.9773C214.449 13.9773 214.917 13.8295 215.292 13.5341C215.671 13.2348 215.955 12.8333 216.144 12.3295C216.337 11.822 216.434 11.2576 216.434 10.6364C216.434 10.0227 216.339 9.4697 216.15 8.97727C215.964 8.48106 215.682 8.08902 215.303 7.80114C214.928 7.50947 214.457 7.36364 213.889 7.36364C213.343 7.36364 212.885 7.50189 212.514 7.77841C212.142 8.05114 211.862 8.43371 211.673 8.92614C211.483 9.41477 211.389 9.98485 211.389 10.6364ZM223.799 15.1818C222.959 15.1818 222.233 14.9962 221.623 14.625C221.017 14.25 220.549 13.7273 220.22 13.0568C219.894 12.3826 219.731 11.5985 219.731 10.7045C219.731 9.81061 219.894 9.02273 220.22 8.34091C220.549 7.6553 221.008 7.12121 221.595 6.73864C222.186 6.35227 222.875 6.15909 223.663 6.15909C224.118 6.15909 224.567 6.23485 225.01 6.38636C225.453 6.53788 225.856 6.78409 226.22 7.125C226.584 7.46212 226.873 7.90909 227.089 8.46591C227.305 9.02273 227.413 9.70833 227.413 10.5227V11.0909H220.686V9.93182H226.049C226.049 9.43939 225.951 9 225.754 8.61364C225.561 8.22727 225.284 7.92235 224.924 7.69886C224.568 7.47538 224.148 7.36364 223.663 7.36364C223.129 7.36364 222.667 7.49621 222.277 7.76136C221.89 8.02273 221.593 8.36364 221.385 8.78409C221.176 9.20455 221.072 9.6553 221.072 10.1364V10.9091C221.072 11.5682 221.186 12.1269 221.413 12.5852C221.644 13.0398 221.964 13.3864 222.373 13.625C222.782 13.8598 223.258 13.9773 223.799 13.9773C224.152 13.9773 224.47 13.928 224.754 13.8295C225.042 13.7273 225.29 13.5758 225.498 13.375C225.707 13.1705 225.868 12.9167 225.981 12.6136L227.277 12.9773C227.14 13.4167 226.911 13.803 226.589 14.1364C226.267 14.4659 225.87 14.7235 225.396 14.9091C224.923 15.0909 224.39 15.1818 223.799 15.1818ZM235.159 6.27273V7.52273H231.114V15H229.773V6.27273H235.159ZM238.778 13.0227L242.982 6.27273H244.528V15H243.187V8.25L239.005 15H237.437V6.27273H238.778V13.0227ZM250.849 15.1818C250.031 15.1818 249.326 14.9886 248.735 14.6023C248.144 14.2159 247.69 13.6837 247.372 13.0057C247.054 12.3277 246.894 11.553 246.894 10.6818C246.894 9.79545 247.057 9.01326 247.383 8.33523C247.713 7.65341 248.171 7.12121 248.758 6.73864C249.349 6.35227 250.038 6.15909 250.826 6.15909C251.44 6.15909 251.993 6.27273 252.485 6.5C252.978 6.72727 253.381 7.04545 253.696 7.45455C254.01 7.86364 254.205 8.34091 254.281 8.88636H252.94C252.838 8.48864 252.61 8.13636 252.258 7.82955C251.91 7.51894 251.44 7.36364 250.849 7.36364C250.326 7.36364 249.868 7.5 249.474 7.77273C249.084 8.04167 248.779 8.42235 248.559 8.91477C248.343 9.40341 248.235 9.97727 248.235 10.6364C248.235 11.3106 248.341 11.8977 248.554 12.3977C248.769 12.8977 249.072 13.286 249.463 13.5625C249.857 13.839 250.319 13.9773 250.849 13.9773C251.197 13.9773 251.514 13.9167 251.798 13.7955C252.082 13.6742 252.322 13.5 252.519 13.2727C252.716 13.0455 252.857 12.7727 252.94 12.4545H254.281C254.205 12.9697 254.018 13.4337 253.718 13.8466C253.423 14.2557 253.031 14.5814 252.542 14.8239C252.057 15.0625 251.493 15.1818 250.849 15.1818ZM255.874 7.52273V6.27273H262.964V7.52273H260.101V15H258.76V7.52273H255.874ZM265.24 18.2727V6.27273H266.536V7.65909H266.695C266.793 7.50758 266.93 7.31439 267.104 7.07955C267.282 6.84091 267.536 6.62879 267.865 6.44318C268.199 6.25379 268.649 6.15909 269.218 6.15909C269.953 6.15909 270.6 6.3428 271.161 6.71023C271.721 7.07765 272.159 7.59848 272.473 8.27273C272.788 8.94697 272.945 9.74242 272.945 10.6591C272.945 11.5833 272.788 12.3845 272.473 13.0625C272.159 13.7367 271.723 14.2595 271.167 14.6307C270.61 14.9981 269.968 15.1818 269.24 15.1818C268.68 15.1818 268.231 15.089 267.894 14.9034C267.557 14.714 267.297 14.5 267.115 14.2614C266.934 14.0189 266.793 13.8182 266.695 13.6591H266.581V18.2727H265.24ZM266.559 10.6364C266.559 11.2955 266.655 11.8769 266.848 12.3807C267.042 12.8807 267.324 13.2727 267.695 13.5568C268.066 13.8371 268.521 13.9773 269.059 13.9773C269.619 13.9773 270.087 13.8295 270.462 13.5341C270.841 13.2348 271.125 12.8333 271.314 12.3295C271.507 11.822 271.604 11.2576 271.604 10.6364C271.604 10.0227 271.509 9.4697 271.32 8.97727C271.134 8.48106 270.852 8.08902 270.473 7.80114C270.098 7.50947 269.627 7.36364 269.059 7.36364C268.513 7.36364 268.055 7.50189 267.684 7.77841C267.312 8.05114 267.032 8.43371 266.843 8.92614C266.653 9.41477 266.559 9.98485 266.559 10.6364ZM276.651 13.0227L280.856 6.27273H282.401V15H281.06V8.25L276.879 15H275.31V6.27273H276.651V13.0227ZM285.177 18.2727V6.27273H286.473V7.65909H286.632C286.73 7.50758 286.867 7.31439 287.041 7.07955C287.219 6.84091 287.473 6.62879 287.802 6.44318C288.136 6.25379 288.586 6.15909 289.155 6.15909C289.889 6.15909 290.537 6.3428 291.098 6.71023C291.658 7.07765 292.096 7.59848 292.41 8.27273C292.725 8.94697 292.882 9.74242 292.882 10.6591C292.882 11.5833 292.725 12.3845 292.41 13.0625C292.096 13.7367 291.66 14.2595 291.103 14.6307C290.547 14.9981 289.905 15.1818 289.177 15.1818C288.617 15.1818 288.168 15.089 287.831 14.9034C287.494 14.714 287.234 14.5 287.052 14.2614C286.87 14.0189 286.73 13.8182 286.632 13.6591H286.518V18.2727H285.177ZM286.495 10.6364C286.495 11.2955 286.592 11.8769 286.785 12.3807C286.978 12.8807 287.261 13.2727 287.632 13.5568C288.003 13.8371 288.458 13.9773 288.995 13.9773C289.556 13.9773 290.024 13.8295 290.399 13.5341C290.778 13.2348 291.062 12.8333 291.251 12.3295C291.444 11.822 291.541 11.2576 291.541 10.6364C291.541 10.0227 291.446 9.4697 291.257 8.97727C291.071 8.48106 290.789 8.08902 290.41 7.80114C290.035 7.50947 289.564 7.36364 288.995 7.36364C288.45 7.36364 287.992 7.50189 287.62 7.77841C287.249 8.05114 286.969 8.43371 286.78 8.92614C286.59 9.41477 286.495 9.98485 286.495 10.6364ZM298.793 15.1818C298.005 15.1818 297.314 14.9943 296.719 14.6193C296.128 14.2443 295.666 13.7197 295.332 13.0455C295.003 12.3712 294.838 11.5833 294.838 10.6818C294.838 9.77273 295.003 8.97917 295.332 8.30114C295.666 7.62311 296.128 7.09659 296.719 6.72159C297.314 6.34659 298.005 6.15909 298.793 6.15909C299.581 6.15909 300.27 6.34659 300.861 6.72159C301.456 7.09659 301.918 7.62311 302.247 8.30114C302.581 8.97917 302.747 9.77273 302.747 10.6818C302.747 11.5833 302.581 12.3712 302.247 13.0455C301.918 13.7197 301.456 14.2443 300.861 14.6193C300.27 14.9943 299.581 15.1818 298.793 15.1818ZM298.793 13.9773C299.391 13.9773 299.884 13.8239 300.27 13.517C300.656 13.2102 300.942 12.8068 301.128 12.3068C301.314 11.8068 301.406 11.2652 301.406 10.6818C301.406 10.0985 301.314 9.55492 301.128 9.05114C300.942 8.54735 300.656 8.14015 300.27 7.82955C299.884 7.51894 299.391 7.36364 298.793 7.36364C298.194 7.36364 297.702 7.51894 297.315 7.82955C296.929 8.14015 296.643 8.54735 296.457 9.05114C296.272 9.55492 296.179 10.0985 296.179 10.6818C296.179 11.2652 296.272 11.8068 296.457 12.3068C296.643 12.8068 296.929 13.2102 297.315 13.517C297.702 13.8239 298.194 13.9773 298.793 13.9773ZM305.114 15V6.27273H308.682C309.622 6.27273 310.368 6.48485 310.921 6.90909C311.474 7.33333 311.751 7.89394 311.751 8.59091C311.751 9.12121 311.593 9.5322 311.279 9.82386C310.965 10.1117 310.561 10.3068 310.069 10.4091C310.391 10.4545 310.703 10.5682 311.006 10.75C311.313 10.9318 311.567 11.1818 311.768 11.5C311.968 11.8144 312.069 12.2008 312.069 12.6591C312.069 13.1061 311.955 13.5057 311.728 13.858C311.501 14.2102 311.175 14.4886 310.751 14.6932C310.326 14.8977 309.819 15 309.228 15H305.114ZM306.387 13.7727H309.228C309.69 13.7727 310.052 13.6629 310.313 13.4432C310.574 13.2235 310.705 12.9242 310.705 12.5455C310.705 12.0947 310.574 11.7405 310.313 11.483C310.052 11.2216 309.69 11.0909 309.228 11.0909H306.387V13.7727ZM306.387 9.93182H308.682C309.042 9.93182 309.351 9.88258 309.608 9.78409C309.866 9.68182 310.063 9.53788 310.199 9.35227C310.34 9.16288 310.41 8.93939 310.41 8.68182C310.41 8.31439 310.256 8.02651 309.949 7.81818C309.643 7.60606 309.22 7.5 308.682 7.5H306.387V9.93182ZM316.987 15.2045C316.434 15.2045 315.932 15.1004 315.481 14.892C315.03 14.6799 314.672 14.375 314.407 13.9773C314.142 13.5758 314.009 13.0909 314.009 12.5227C314.009 12.0227 314.108 11.6174 314.305 11.3068C314.502 10.9924 314.765 10.7462 315.095 10.5682C315.424 10.3902 315.788 10.2576 316.186 10.1705C316.587 10.0795 316.99 10.0076 317.396 9.95455C317.926 9.88636 318.356 9.83523 318.686 9.80114C319.019 9.76326 319.261 9.70076 319.413 9.61364C319.568 9.52652 319.646 9.375 319.646 9.15909V9.11364C319.646 8.55303 319.492 8.11742 319.186 7.80682C318.883 7.49621 318.422 7.34091 317.805 7.34091C317.165 7.34091 316.663 7.48106 316.299 7.76136C315.936 8.04167 315.68 8.34091 315.532 8.65909L314.259 8.20455C314.487 7.67424 314.79 7.26136 315.169 6.96591C315.551 6.66667 315.968 6.45833 316.419 6.34091C316.873 6.2197 317.32 6.15909 317.759 6.15909C318.04 6.15909 318.362 6.19318 318.725 6.26136C319.093 6.32576 319.447 6.46023 319.788 6.66477C320.133 6.86932 320.419 7.17803 320.646 7.59091C320.873 8.00379 320.987 8.55682 320.987 9.25V15H319.646V13.8182H319.578C319.487 14.0076 319.335 14.2102 319.123 14.4261C318.911 14.642 318.629 14.8258 318.276 14.9773C317.924 15.1288 317.494 15.2045 316.987 15.2045ZM317.191 14C317.722 14 318.169 13.8958 318.532 13.6875C318.9 13.4792 319.176 13.2102 319.362 12.8807C319.551 12.5511 319.646 12.2045 319.646 11.8409V10.6136C319.589 10.6818 319.464 10.7443 319.271 10.8011C319.081 10.8542 318.862 10.9015 318.612 10.9432C318.365 10.9811 318.125 11.0152 317.89 11.0455C317.659 11.072 317.472 11.0947 317.328 11.1136C316.979 11.1591 316.653 11.233 316.35 11.3352C316.051 11.4337 315.809 11.5833 315.623 11.7841C315.441 11.9811 315.35 12.25 315.35 12.5909C315.35 13.0568 315.523 13.4091 315.867 13.6477C316.216 13.8826 316.657 14 317.191 14ZM322.567 7.52273V6.27273H329.658V7.52273H326.794V15H325.453V7.52273H322.567ZM333.093 9.43182H335.593C336.615 9.43182 337.398 9.69129 337.939 10.2102C338.481 10.7292 338.752 11.3864 338.752 12.1818C338.752 12.7045 338.63 13.1799 338.388 13.608C338.146 14.0322 337.79 14.3712 337.32 14.625C336.85 14.875 336.274 15 335.593 15H331.934V6.27273H333.274V13.75H335.593C336.123 13.75 336.559 13.6098 336.899 13.3295C337.24 13.0492 337.411 12.6894 337.411 12.25C337.411 11.7879 337.24 11.411 336.899 11.1193C336.559 10.8277 336.123 10.6818 335.593 10.6818H333.093V9.43182ZM344.658 15.1818C343.84 15.1818 343.136 14.9886 342.545 14.6023C341.954 14.2159 341.499 13.6837 341.181 13.0057C340.863 12.3277 340.704 11.553 340.704 10.6818C340.704 9.79545 340.867 9.01326 341.192 8.33523C341.522 7.65341 341.98 7.12121 342.567 6.73864C343.158 6.35227 343.848 6.15909 344.636 6.15909C345.249 6.15909 345.802 6.27273 346.295 6.5C346.787 6.72727 347.191 7.04545 347.505 7.45455C347.819 7.86364 348.014 8.34091 348.09 8.88636H346.749C346.647 8.48864 346.42 8.13636 346.067 7.82955C345.719 7.51894 345.249 7.36364 344.658 7.36364C344.136 7.36364 343.677 7.5 343.283 7.77273C342.893 8.04167 342.588 8.42235 342.369 8.91477C342.153 9.40341 342.045 9.97727 342.045 10.6364C342.045 11.3106 342.151 11.8977 342.363 12.3977C342.579 12.8977 342.882 13.286 343.272 13.5625C343.666 13.839 344.128 13.9773 344.658 13.9773C345.007 13.9773 345.323 13.9167 345.607 13.7955C345.891 13.6742 346.132 13.5 346.329 13.2727C346.526 13.0455 346.666 12.7727 346.749 12.4545H348.09C348.014 12.9697 347.827 13.4337 347.528 13.8466C347.232 14.2557 346.84 14.5814 346.352 14.8239C345.867 15.0625 345.302 15.1818 344.658 15.1818ZM355.62 15V7.5H353.302C352.779 7.5 352.369 7.62121 352.069 7.86364C351.77 8.10606 351.62 8.43939 351.62 8.86364C351.62 9.2803 351.755 9.60795 352.024 9.84659C352.297 10.0852 352.67 10.2045 353.143 10.2045H355.961V11.4545H353.143C352.552 11.4545 352.043 11.3504 351.615 11.142C351.187 10.9337 350.857 10.6364 350.626 10.25C350.395 9.85985 350.279 9.39773 350.279 8.86364C350.279 8.32576 350.401 7.86364 350.643 7.47727C350.886 7.09091 351.232 6.79356 351.683 6.58523C352.137 6.37689 352.677 6.27273 353.302 6.27273H356.893V15H355.62ZM349.802 15L352.279 10.6591H353.734L351.257 15H349.802Z" fill="#C7C7C7"/>
<rect y="27" width="151" height="2" fill="#029491"/>
<rect x="166" y="27" width="213" height="2" fill="#C7C7C7"/>
</svg>
